<?xml version="1.0" encoding="UTF-8"?>
<svg xmlns="http://www.w3.org/2000/svg" version="1.1" viewBox="40 200 430 190">
  <defs>
    <style>
      .cls-1 {
        fill: #fbab1e;
      }

      .cls-2 {
        fill: #f0e30a;
      }

      .cls-3 {
        fill: #3161ac;
      }

      .cls-4 {
        font-family: MyriadPro-Bold, 'Myriad Pro';
        font-size: 39px;
        font-weight: 700;
      }

      .cls-4, .cls-5, .cls-6 {
        isolation: isolate;
      }

      .cls-4, .cls-7 {
        fill: #79bce7;
      }

      .cls-8 {
        fill: #a6ce39;
      }

      .cls-9 {
        fill: #2e60ad;
      }

      .cls-10 {
        fill: #e17ab0;
      }

      .cls-6 {
        fill: #2461ad;
        font-family: ArialNarrow, Arial;
        font-size: 17.6px;
      }
    </style>
  </defs>
  <!-- Generator: Adobe Illustrator 28.7.6, SVG Export Plug-In . SVG Version: 1.2.0 Build 188)  -->
  <g>
    <g id="Layer_1">
      <path class="cls-7" d="M103.9,371.7s166.6-54.4,331.2-.7l-27.4,10.6s-121.1-40.8-303.8-9.9"/>
      <polygon class="cls-7" points="57.2 275.3 69 301.8 79.4 277.9 90.2 301.9 101.8 275.3 105 275.3 89.7 310.5 87.7 310.5 78 288.7 68.5 310.5 66.2 310.5 50.5 275.3 57.2 275.3"/>
      <path class="cls-7" d="M117.9,310.6c-1.7,0-3.4-.3-4.9-.9s-2.9-1.4-4-2.4c-1.2-1-2.1-2.2-2.7-3.6s-1-2.9-1-4.4.3-3.7.9-5.3,1.5-3,2.5-4.2c1.1-1.2,2.4-2.1,4-2.7,1.5-.7,3.3-1,5.2-1s3.2.3,4.7.8c1.4.5,2.6,1.3,3.6,2.2,1,.9,1.8,2,2.3,3.2.6,1.2.8,2.5.8,3.8h-19.1c0,1.6.2,3.1.7,4.4.4,1.4,1.1,2.5,1.9,3.5s1.7,1.8,2.9,2.3c1.1.5,2.3.8,3.7.8s2.2-.1,3.2-.5,2-.8,2.8-1.3,1.5-1.2,2.1-1.9c.6-.7,1-1.4,1.2-2.1l1.5.6c-.4,1.2-1,2.3-1.8,3.4s-1.8,2-2.9,2.8-2.3,1.4-3.6,1.9c-1.3.4-2.6.7-3.9.7M123,294.1c0-.9-.2-1.7-.5-2.5s-.8-1.4-1.4-2-1.3-1-2.1-1.3c-.8-.3-1.7-.5-2.6-.5s-1.5.1-2.2.5c-.7.3-1.3.8-1.9,1.3-.5.5-1,1.2-1.4,2s-.6,1.6-.6,2.5h12.8-.1Z"/>
      <polygon class="cls-7" points="138.9 310.2 133.8 310.2 133.8 275.8 137.5 274.4 138.9 274.4 138.9 310.2"/>
      <polygon class="cls-7" points="149.2 310.2 144.1 310.2 144.1 275.8 147.8 274.4 149.2 274.4 149.2 310.2"/>
      <path class="cls-9" d="M161.1,292.8c0,2.4.4,4.6,1.1,6.6.7,2,1.8,3.6,3.1,4.9s2.9,2.3,4.7,3.1c1.8.7,3.8,1.1,5.8,1.1s2.4-.2,3.6-.7c1.2-.5,2.2-1.1,3.2-1.9s1.9-1.6,2.7-2.6c.4-.5.7-.9,1-1.4l2.3,1.9c-.2.3-.7.7-1.4,1.5-1,1.1-2.2,2-3.4,2.9-1.3.8-2.8,1.5-4.5,2-1.6.5-3.5.7-5.5.7s-3.8-.2-5.5-.7c-1.7-.4-3.3-1.1-4.8-1.9s-2.8-1.8-3.9-2.9c-1.2-1.1-2.1-2.3-2.9-3.7-.8-1.3-1.4-2.8-1.8-4.3-.4-1.5-.6-3.1-.6-4.7s.2-3.2.6-4.8,1.1-3,1.9-4.3,1.8-2.6,3-3.8c1.2-1.1,2.5-2.1,4-2.9s3.1-1.4,4.8-1.9c1.7-.4,3.6-.7,5.6-.7s3.6.2,5.2.7,3,1.2,4.3,2,1.3.8,2.5,1.8c.5.3.9.7,1.8,1.8l-2.8,1.7c-.9-1.6-1.6-2.5-3-3.5-1.9-1.3-3.9-2-6.3-2s-4,.4-5.8,1.1-3.3,1.8-4.7,3.2-2.4,3-3.1,5c-.7,2-1.2,4.1-1.2,6.6"/>
      <path class="cls-9" d="M211.1,310.2h-5.1v-3.2c-.6.4-1.2.9-1.8,1.3s-1.2.8-1.9,1.2c-.7.4-1.4.7-2.2.9-.8.2-1.7.3-2.9.3s-1.9-.1-2.7-.4-1.5-.7-2.1-1.2-1-1.2-1.3-1.9c-.3-.7-.5-1.5-.5-2.3s.2-1.9.6-2.7,1.1-1.6,1.8-2.2,1.6-1.2,2.7-1.7,2.1-.9,3.2-1.4c1.1-.4,2.3-.7,3.5-1.1,1.2-.3,2.4-.6,3.6-.9v-1.5c0-1.1-.1-2-.4-2.7-.2-.7-.6-1.3-1-1.8-.4-.4-1-.8-1.6-1s-1.3-.3-2.1-.3-1.5,0-2.1.3c-.5.2-1,.5-1.3.8s-.5.7-.6,1.2-.2.9-.2,1.3,0,.8-.1,1.2c0,.4-.2.7-.4,1s-.5.5-.8.7-.7.2-1.3.2-.7,0-1.1-.2c-.3-.1-.6-.3-.8-.6s-.4-.5-.5-.9-.2-.7-.2-1.1c0-.8.3-1.5.8-2.2s1.3-1.3,2.2-1.8c1-.5,2.1-.9,3.3-1.2,1.3-.3,2.6-.4,4-.4s3.1.1,4.3.4,2.1.7,2.8,1.3c.7.5,1.2,1.2,1.5,2s.5,1.7.5,2.6v17.9h.2ZM206,296.4c-.7.2-1.5.5-2.3.7-.8.3-1.5.6-2.3.9-.7.3-1.5.7-2.2,1.1s-1.3.8-1.8,1.3-1,.9-1.2,1.5c-.3.5-.5,1.1-.5,1.6s.1,1.1.4,1.7c.2.5.5,1,.9,1.4s.8.7,1.3.9,1,.3,1.6.3,1.1,0,1.6-.2c.5-.1,1-.3,1.5-.6s1-.5,1.5-.8,1-.6,1.5-1v-8.8h0Z"/>
      <path class="cls-9" d="M215.3,286.5h5.1v4.5c.5-.7,1-1.3,1.6-1.9s1.2-1.1,1.8-1.6c.6-.4,1.3-.8,1.9-1.1s1.3-.4,2-.4,1.1,0,1.5.2.9.3,1.3.6c.4.2.6.5.8.9.2.3.3.7.3,1.1,0,.8-.3,1.3-.8,1.7s-1.2.6-2.2.6-1,0-1.4-.1c-.3,0-.6-.2-1-.4-.3-.1-.6-.2-.8-.4-.3,0-.6-.1-1.1-.1s-.7,0-1,.3c-.3.2-.7.4-1,.8-.3.3-.7.7-1.1,1.2s-.7.9-1.1,1.5v16.4h-5.1v-23.7h.3Z"/>
      <path class="cls-9" d="M243.3,310.6c-1.7,0-3.4-.3-4.9-.9s-2.9-1.4-4-2.4c-1.2-1-2.1-2.2-2.7-3.6-.6-1.4-1-2.9-1-4.4s.3-3.7.9-5.3,1.5-3,2.5-4.2c1.1-1.2,2.4-2.1,4-2.7,1.5-.7,3.3-1,5.2-1s3.2.3,4.7.8c1.4.5,2.6,1.3,3.6,2.2s1.8,2,2.3,3.2c.6,1.2.8,2.5.8,3.8h-19.1c0,1.6.2,3.1.7,4.4.4,1.4,1.1,2.5,1.9,3.5s1.7,1.8,2.9,2.3c1.1.5,2.3.8,3.7.8s2.2-.1,3.2-.5,2-.8,2.8-1.3,1.5-1.2,2.1-1.9c.6-.7,1-1.4,1.2-2.1l1.5.6c-.4,1.2-1,2.3-1.8,3.4s-1.8,2-2.9,2.8c-1.1.8-2.3,1.4-3.6,1.9-1.3.4-2.6.7-3.9.7M248.4,294.1c0-.9-.2-1.7-.5-2.5s-.8-1.4-1.4-2c-.6-.6-1.3-1-2.1-1.3s-1.7-.5-2.6-.5-1.5.1-2.2.5c-.7.3-1.3.8-1.9,1.3-.5.5-1,1.2-1.4,2s-.6,1.6-.6,2.5h12.8-.1Z"/>
      <path class="cls-9" d="M264.4,281.2c.4-7.1-.9-11-1.5-12.5-1-2.1-2.4-4.1-4.1-5.8-2.1-1.9-4.6-2.9-7.3-3.2-2-.1-3.4.1-5.6,1l-1.1-3.9c1.7-.4,2.4-.3,3.1-.3,1.3,0,2.5,0,3.7.3,1.9.3,3.7.8,5.6,1.6,1.9.8,3.6,2,5.3,3.5,1.8,1.6,3.2,3.4,4.3,5.2,1.1,1.9,2.4,7.9,2.6,10.1"/>
      <path class="cls-9" d="M288.9,261.4c0,4.8-3.9,8.7-8.8,8.7s-8.8-3.9-8.8-8.7,3.9-8.7,8.8-8.7,8.8,3.9,8.8,8.7M273.8,257.5c-2.1,3.5-.9,8,2.7,10.2,3.6,2,8.1.9,10.3-2.6"/>
      <path class="cls-10" d="M236.2,240.9c0,3.2-2.9,5.8-6.5,5.8s-6.5-2.6-6.5-5.8,2.9-5.8,6.5-5.8,6.5,2.6,6.5,5.8"/>
      <path class="cls-7" d="M252.9,220c0,4-3.4,7.3-7.6,7.3s-7.6-3.2-7.6-7.3,3.4-7.3,7.6-7.3,7.6,3.2,7.6,7.3"/>
      <path class="cls-1" d="M278.1,211.8c0,4.3-3.8,7.8-8.6,7.8s-8.6-3.5-8.6-7.8,3.8-7.8,8.6-7.8,8.6,3.5,8.6,7.8"/>
      <path class="cls-8" d="M319.2,240.9c0,3.1-2.8,5.6-6.2,5.6s-6.2-2.5-6.2-5.6,2.8-5.6,6.2-5.6,6.2,2.5,6.2,5.6"/>
      <g class="cls-5">
        <g class="cls-5">
          <text class="cls-6" transform="translate(85.6 328.3) scale(1.1 1)"><tspan x="0" y="0">Pediatric Therapy</tspan></text>
        </g>
      </g>
      <path class="cls-3" d="M393.9,309.6c-1.2.2-2.5.3-3.9.3-2.3,0-3.9-.3-5-.9s-1.7-1.4-2-2.4-.4-2.4-.4-4.1v-13.8h-3.8v-3.4h3.8v-6.1h5.5v6.1h5v3.4h-5v14.1c0,1.7.3,2.7.8,3.2s1.3.7,2.2.7,1.9,0,2.8-.2v3.3h0v-.2Z"/>
      <path class="cls-3" d="M416.3,306.8c-2.6,2.5-5.4,3.7-8.6,3.7-6.5,0-9.7-3-9.7-9.1v-16.2h5.1v16c0,2,.4,3.5,1.3,4.4s2.2,1.3,4.1,1.3c2.8,0,5.5-1.3,7.9-4v-17.7h5.1v24.7h-5.1v-3.1h0Z"/>
      <path class="cls-3" d="M360.4,285.8h5.1v4.7c.5-.7,1-1.4,1.6-2s1.2-1.2,1.8-1.7c.6-.5,1.3-.9,1.9-1.1s1.3-.4,2-.4,1.1,0,1.5.2.9.4,1.3.6.6.6.8.9.3.7.3,1.1c0,.8-.3,1.4-.8,1.8s-1.2.6-2.2.6-1,0-1.4-.2c-.3-.1-.6-.2-.9-.4l-.8-.4c-.3-.1-.6-.2-1.1-.2s-.7.1-1,.3-.7.5-1,.8-.7.7-1,1.2c-.4.5-.7,1-1.1,1.5v17.1h-5.1v-24.7h0v.3Z"/>
      <polygon class="cls-3" points="326.1 274.9 326.1 302.9 304.5 274.9 300 274.9 300 310.3 304.1 310.3 304.1 282.4 325.7 310.3 328.9 310.3 328.9 274.9 326.1 274.9"/>
      <g class="cls-5">
        <text class="cls-4" transform="translate(262.5 309.2)"><tspan x="0" y="0">&amp;</tspan></text>
      </g>
      <g class="cls-5">
        <g class="cls-5">
          <text class="cls-6" transform="translate(303 327.7) scale(1.1 1)"><tspan x="0" y="0">Home Health Care</tspan></text>
        </g>
      </g>
      <path class="cls-2" d="M304.1,219.1c0,4-3.4,7.3-7.6,7.3s-7.6-3.2-7.6-7.3,3.4-7.3,7.6-7.3,7.6,3.2,7.6,7.3"/>
      <path class="cls-9" d="M453.5,310.4c-1.7,0-3.4-.3-4.9-.9s-2.9-1.4-4-2.4c-1.2-1-2.1-2.2-2.7-3.6s-1-2.9-1-4.4.3-3.7.9-5.3,1.5-3,2.5-4.2c1.1-1.2,2.4-2.1,4-2.7,1.5-.7,3.3-1,5.2-1s3.2.3,4.7.8c1.4.5,2.6,1.3,3.6,2.2s1.8,2,2.3,3.2c.6,1.2.8,2.5.8,3.8h-19.1c0,1.6.2,3.1.7,4.4.4,1.4,1.1,2.5,1.9,3.5s1.7,1.8,2.9,2.3c1.1.5,2.3.8,3.7.8s2.2-.1,3.2-.5,2-.8,2.8-1.3,1.5-1.2,2.1-1.9c.6-.7,1-1.4,1.2-2.1l1.5.6c-.4,1.2-1,2.3-1.8,3.4s-1.8,2-2.9,2.8-2.3,1.4-3.6,1.9c-1.3.4-2.6.7-3.9.7M458.6,293.9c0-.9-.2-1.7-.5-2.5s-.8-1.4-1.4-2-1.3-1-2.1-1.3c-.8-.3-1.7-.5-2.6-.5s-1.5.1-2.2.5c-.7.3-1.3.8-1.9,1.3-.5.5-1,1.2-1.4,2s-.6,1.6-.6,2.5h12.8,0Z"/>
      <path class="cls-3" d="M351.2,307.6c-2.6,2.5-5.4,3.7-8.6,3.7-6.5,0-9.7-3-9.7-9.1v-16.2h5.1v16c0,2,.4,3.5,1.3,4.4s2.2,1.3,4.1,1.3c2.8,0,5.5-1.3,7.9-4v-17.7h5.1v24.7h-5.1v-3.1h0Z"/>
      <path class="cls-3" d="M425.4,285.2h5.1v4.7c.5-.7,1-1.4,1.6-2s1.2-1.2,1.8-1.7c.6-.5,1.3-.9,1.9-1.1s1.3-.4,2-.4,1.1,0,1.5.2.9.4,1.3.6.6.6.8.9.3.7.3,1.1c0,.8-.3,1.4-.8,1.8s-1.2.6-2.2.6-1,0-1.4-.2c-.3-.1-.6-.2-.9-.4l-.8-.4c-.3-.1-.6-.2-1.1-.2s-.7.1-1,.3-.7.5-1,.8-.7.7-1,1.2c-.4.5-.7,1-1.1,1.5v17.1h-5.1v-24.7h0v.3Z"/>
    </g>
  </g>
</svg>